  <svg height="67" viewBox="0 0 67.3076923076923 67.3076923076923">
    <defs id="SvgjsDefs5755"></defs>
    <g
      id="SvgjsG5756"
      featurekey="5TMTKC-0"
      transform="matrix(0.6915196994359021,0,0,0.6915196994359021,-1.1520714130177137,-1.1527633772097543)"
      fill="#00b565"
    >
      <path
        xmlns="http://www.w3.org/2000/svg"
        d="M90.853,1.667H9.813c-4.5,0-8.147,3.647-8.147,8.147v81.039c0,4.5,3.648,8.147,8.147,8.147h81.039  c4.5,0,8.147-3.647,8.147-8.147V9.813C99,5.314,95.353,1.667,90.853,1.667z M95.226,11.232v35.461h-40.32  c0.188-0.16,0.356-0.32,0.503-0.479c0,0,2.108-6.897-1.724-9.58c0,0-8.022,0.538-13.123,3.981V5.441h48.873  C93.585,5.441,95.226,7.081,95.226,11.232z M23.224,42.574c0,0,4.401,1.374,7.581,4.119h-2.41  C25.944,45.627,23.224,44.101,23.224,42.574z M44.872,46.693h-2.41c3.181-2.745,7.582-4.119,7.582-4.119  C50.044,44.101,47.323,45.627,44.872,46.693z M11.231,5.441h21.474v35.174c-5.1-3.443-13.123-3.981-13.123-3.981  c-3.832,2.683-1.725,9.58-1.725,9.58c0.147,0.159,0.316,0.319,0.504,0.479H5.44V11.232C5.44,7.081,7.081,5.441,11.231,5.441z   M5.44,89.435V54.549h16.493c-3.583,2.716-4.075,5.269-4.075,5.269v12.646c0-4.216,14.753-15.329,14.753-15.329l0.094-0.068v38.159  H11.231C7.081,95.226,5.44,93.585,5.44,89.435z M89.435,95.226H40.562V57.067l0.094,0.067c0,0,14.753,11.113,14.753,15.329V59.817  c0,0-0.492-2.553-4.074-5.269h43.892v34.886C95.226,93.585,93.585,95.226,89.435,95.226z"
      ></path>
    </g>
  </svg>